# Blender v2.78 (sub 0) OBJ File: 'nut.blend'
# www.blender.org
mtllib nut.mtl
o Plane.002_Plane.005
v 0.466022 -0.055927 -1.476710
v 0.454128 3.168103 -1.865826
v 0.449290 3.243688 -2.908422
v 0.452116 -0.972286 -1.602547
v 0.722076 0.817591 -0.893943
v 1.254727 -0.971438 -1.229963
v 0.449290 2.092479 -3.675233
v 0.456347 1.737780 -1.211531
v 1.482378 -0.970121 -0.000000
v 0.466022 -0.055927 1.476710
v 0.454128 3.168103 1.865826
v 0.449290 3.243688 2.908422
v 0.452116 -0.972286 1.602547
v 0.722076 0.817591 0.893943
v 1.254728 -0.971438 1.229963
v 1.283288 0.824666 -0.000000
v 0.449290 2.092479 3.675233
v 0.456347 1.737780 1.211531
v -0.000000 0.786763 -0.901319
v -0.000000 2.093037 -3.674530
v 0.000000 3.164919 -1.866794
v -0.466022 -0.055927 -1.476710
v -0.454128 3.168103 -1.865826
v -0.449290 3.243688 -2.908422
v -0.452116 -0.972286 -1.602547
v -0.722076 0.817591 -0.893943
v -1.254728 -0.971438 -1.229963
v -0.449290 2.092479 -3.675233
v -0.000000 -0.978332 -1.601720
v 0.000000 3.244213 -2.908923
v 0.000000 1.975841 -1.384056
v -0.456347 1.737780 -1.211531
v 0.000000 0.786763 0.901319
v -0.000000 -0.992023 0.000000
v 0.000000 2.093037 3.674530
v 0.000000 3.164919 1.866794
v 0.000000 0.894371 -0.000000
v -1.482378 -0.970121 0.000000
v -0.466022 -0.055927 1.476710
v -0.454128 3.168103 1.865826
v -0.449289 3.243688 2.908422
v -0.452116 -0.972286 1.602547
v -0.722076 0.817591 0.893943
v -1.254728 -0.971438 1.229963
v -1.283288 0.824666 0.000000
v -0.449290 2.092479 3.675233
v 0.000000 -0.978332 1.601720
v 0.000000 3.244213 2.908923
v 0.000000 1.975841 1.384056
v -0.456347 1.737780 1.211531
vn -0.0006 0.5544 -0.8323
vn 1.0000 0.0029 -0.0044
vn 0.0060 -0.9999 -0.0106
vn 0.5977 0.3163 -0.7367
vn 0.7977 0.3321 -0.5034
vn 0.8643 0.0781 -0.4968
vn 0.0542 0.9977 -0.0419
vn -0.1259 0.4125 0.9022
vn 0.9997 -0.0125 -0.0198
vn -0.0020 -0.5602 -0.8283
vn -0.0071 0.9974 0.0723
vn 0.4180 0.1174 -0.9008
vn 0.0148 -0.9999 -0.0017
vn 0.9775 0.1084 -0.1810
vn -0.0411 0.9921 -0.1184
vn 0.0011 0.9971 0.0759
vn 0.0060 -0.5594 -0.8289
vn 0.0016 0.5538 -0.8327
vn -0.0233 0.3201 0.9471
vn 1.0000 0.0057 -0.0020
vn 1.0000 0.0003 -0.0028
vn -0.0046 0.3762 0.9265
vn -0.1523 0.3718 0.9158
vn 0.0134 -0.9999 -0.0085
vn -0.0006 0.5544 0.8323
vn 1.0000 0.0029 0.0044
vn 0.0060 -0.9999 0.0106
vn 0.5977 0.3163 0.7367
vn 0.7977 0.3321 0.5034
vn 0.8643 0.0781 0.4968
vn 0.0542 0.9977 0.0419
vn -0.1259 0.4125 -0.9022
vn 0.9997 -0.0125 0.0198
vn -0.0020 -0.5602 0.8283
vn -0.0071 0.9974 -0.0723
vn 0.4180 0.1174 0.9008
vn 0.0148 -0.9999 0.0017
vn 0.9775 0.1084 0.1810
vn -0.0411 0.9921 0.1184
vn 0.0011 0.9971 -0.0759
vn 0.0060 -0.5594 0.8289
vn 0.0016 0.5538 0.8327
vn -0.0233 0.3201 -0.9471
vn 1.0000 0.0057 0.0020
vn 1.0000 0.0003 0.0028
vn -0.0046 0.3762 -0.9265
vn -0.1523 0.3718 -0.9158
vn 0.0134 -0.9999 0.0085
vn 0.0006 0.5544 -0.8323
vn -1.0000 0.0029 -0.0044
vn -0.0060 -0.9999 -0.0106
vn -0.5977 0.3163 -0.7367
vn -0.7977 0.3321 -0.5034
vn -0.8643 0.0781 -0.4968
vn -0.0542 0.9977 -0.0419
vn 0.1259 0.4125 0.9022
vn -0.9997 -0.0125 -0.0198
vn 0.0020 -0.5602 -0.8283
vn 0.0071 0.9974 0.0723
vn -0.4180 0.1174 -0.9008
vn -0.0148 -0.9999 -0.0017
vn -0.9775 0.1084 -0.1810
vn 0.0411 0.9921 -0.1184
vn -0.0011 0.9971 0.0759
vn -0.0060 -0.5594 -0.8289
vn -0.0016 0.5538 -0.8327
vn 0.0233 0.3201 0.9471
vn -1.0000 0.0057 -0.0020
vn -1.0000 0.0003 -0.0028
vn 0.0046 0.3762 0.9265
vn 0.1523 0.3718 0.9158
vn -0.0134 -0.9999 -0.0085
vn 0.0006 0.5544 0.8323
vn -1.0000 0.0029 0.0044
vn -0.0060 -0.9999 0.0106
vn -0.5977 0.3163 0.7367
vn -0.7977 0.3321 0.5034
vn -0.8643 0.0781 0.4968
vn -0.0542 0.9977 0.0419
vn 0.1259 0.4125 -0.9022
vn -0.9997 -0.0125 0.0198
vn 0.0020 -0.5602 0.8283
vn 0.0071 0.9974 -0.0723
vn -0.4180 0.1174 0.9008
vn -0.0148 -0.9999 0.0017
vn -0.9775 0.1084 0.1810
vn 0.0411 0.9921 0.1184
vn -0.0011 0.9971 -0.0759
vn -0.0060 -0.5594 0.8289
vn -0.0016 0.5538 0.8327
vn 0.0233 0.3201 -0.9471
vn -1.0000 0.0057 0.0020
vn -1.0000 0.0003 0.0028
vn 0.0046 0.3762 -0.9265
vn 0.1523 0.3718 -0.9158
vn -0.0134 -0.9999 0.0085
usemtl None
s off
f 20//1 3//1 7//1
f 2//2 7//2 3//2
f 4//3 6//3 34//3
f 5//4 6//4 1//4
f 6//5 5//5 16//5
f 8//6 5//6 1//6
f 5//7 37//7 16//7
f 2//8 31//8 8//8
f 1//9 4//9 7//9
f 20//10 7//10 4//10
f 21//11 2//11 3//11
f 4//12 1//12 6//12
f 34//13 6//13 9//13
f 16//14 9//14 6//14
f 19//15 37//15 5//15
f 21//16 3//16 30//16
f 20//17 4//17 29//17
f 20//18 30//18 3//18
f 8//19 19//19 5//19
f 1//20 7//20 8//20
f 2//21 8//21 7//21
f 2//22 21//22 31//22
f 8//23 31//23 19//23
f 4//24 34//24 29//24
f 35//25 17//25 12//25
f 11//26 12//26 17//26
f 13//27 34//27 15//27
f 14//28 10//28 15//28
f 15//29 16//29 14//29
f 18//30 10//30 14//30
f 14//31 16//31 37//31
f 11//32 18//32 49//32
f 10//33 17//33 13//33
f 35//34 13//34 17//34
f 36//35 12//35 11//35
f 13//36 15//36 10//36
f 34//37 9//37 15//37
f 16//38 15//38 9//38
f 33//39 14//39 37//39
f 36//40 48//40 12//40
f 35//41 47//41 13//41
f 35//42 12//42 48//42
f 18//43 14//43 33//43
f 10//44 18//44 17//44
f 11//45 17//45 18//45
f 11//46 49//46 36//46
f 18//47 33//47 49//47
f 13//48 47//48 34//48
f 20//49 28//49 24//49
f 23//50 24//50 28//50
f 25//51 34//51 27//51
f 26//52 22//52 27//52
f 27//53 45//53 26//53
f 32//54 22//54 26//54
f 26//55 45//55 37//55
f 23//56 32//56 31//56
f 22//57 28//57 25//57
f 20//58 25//58 28//58
f 21//59 24//59 23//59
f 25//60 27//60 22//60
f 34//61 38//61 27//61
f 45//62 27//62 38//62
f 19//63 26//63 37//63
f 21//64 30//64 24//64
f 20//65 29//65 25//65
f 20//66 24//66 30//66
f 32//67 26//67 19//67
f 22//68 32//68 28//68
f 23//69 28//69 32//69
f 23//70 31//70 21//70
f 32//71 19//71 31//71
f 25//72 29//72 34//72
f 35//73 41//73 46//73
f 40//74 46//74 41//74
f 42//75 44//75 34//75
f 43//76 44//76 39//76
f 44//77 43//77 45//77
f 50//78 43//78 39//78
f 43//79 37//79 45//79
f 40//80 49//80 50//80
f 39//81 42//81 46//81
f 35//82 46//82 42//82
f 36//83 40//83 41//83
f 42//84 39//84 44//84
f 34//85 44//85 38//85
f 45//86 38//86 44//86
f 33//87 37//87 43//87
f 36//88 41//88 48//88
f 35//89 42//89 47//89
f 35//90 48//90 41//90
f 50//91 33//91 43//91
f 39//92 46//92 50//92
f 40//93 50//93 46//93
f 40//94 36//94 49//94
f 50//95 49//95 33//95
f 42//96 34//96 47//96
